<mxfile host="app.diagrams.net" modified="2021-04-29T09:39:04.780Z" agent="5.0 (Macintosh; Intel Mac OS X 10_15_7) AppleWebKit/537.36 (KHTML, like Gecko) Chrome/90.0.4430.85 Safari/537.36" etag="-P0__zuKuERdXQTnaM7a" version="14.6.6" type="github">
  <diagram name="Page-1" id="74e2e168-ea6b-b213-b513-2b3c1d86103e">
    <mxGraphModel dx="2213" dy="722" grid="1" gridSize="10" guides="1" tooltips="1" connect="1" arrows="1" fold="1" page="1" pageScale="1" pageWidth="1100" pageHeight="850" background="#ffffff" math="0" shadow="0">
      <root>
        <mxCell id="0" />
        <mxCell id="1" parent="0" />
        <mxCell id="77e6c97f196da883-1" value="Pool" style="swimlane;html=1;childLayout=stackLayout;startSize=20;rounded=0;shadow=0;labelBackgroundColor=none;strokeWidth=1;fontFamily=Verdana;fontSize=8;align=center;" parent="1" vertex="1">
          <mxGeometry x="-20" y="40" width="960" height="760" as="geometry" />
        </mxCell>
        <mxCell id="77e6c97f196da883-2" value="平台管理员" style="swimlane;html=1;startSize=20;fillColor=#f5f5f5;strokeColor=#666666;fontColor=#333333;" parent="77e6c97f196da883-1" vertex="1">
          <mxGeometry y="20" width="210" height="740" as="geometry" />
        </mxCell>
        <mxCell id="77e6c97f196da883-8" value="&lt;pre&gt;&lt;font style=&quot;font-size: 6px&quot;&gt;平台登录&lt;/font&gt;&lt;/pre&gt;" style="rounded=1;whiteSpace=wrap;html=1;shadow=0;labelBackgroundColor=none;strokeWidth=1;fontFamily=Verdana;fontSize=8;align=center;fillColor=#f5f5f5;strokeColor=#666666;fontColor=#333333;" parent="77e6c97f196da883-2" vertex="1">
          <mxGeometry x="15" y="180" width="60" height="30" as="geometry" />
        </mxCell>
        <mxCell id="f6PbpdCPIHnhkly5Aqhj-1" value="&lt;font style=&quot;font-size: 11px&quot;&gt;平台管理员&lt;/font&gt;" style="text;html=1;strokeColor=none;fillColor=none;align=center;verticalAlign=middle;whiteSpace=wrap;rounded=0;" vertex="1" parent="77e6c97f196da883-2">
          <mxGeometry x="15" y="110" width="70" height="20" as="geometry" />
        </mxCell>
        <mxCell id="f6PbpdCPIHnhkly5Aqhj-2" value="" style="shape=flexArrow;endArrow=classic;html=1;" edge="1" parent="77e6c97f196da883-2">
          <mxGeometry width="50" height="50" relative="1" as="geometry">
            <mxPoint x="44.709999999999994" y="140" as="sourcePoint" />
            <mxPoint x="44.709999999999994" y="170" as="targetPoint" />
            <Array as="points">
              <mxPoint x="44.709999999999994" y="180" />
            </Array>
          </mxGeometry>
        </mxCell>
        <mxCell id="77e6c97f196da883-11" value="设置租户管理员" style="rounded=1;whiteSpace=wrap;html=1;shadow=0;labelBackgroundColor=none;strokeWidth=1;fontFamily=Verdana;fontSize=8;align=center;fillColor=#f5f5f5;strokeColor=#666666;fontColor=#333333;" parent="77e6c97f196da883-2" vertex="1">
          <mxGeometry x="130" y="180" width="60" height="30" as="geometry" />
        </mxCell>
        <mxCell id="77e6c97f196da883-26" style="edgeStyle=orthogonalEdgeStyle;rounded=1;html=1;labelBackgroundColor=none;startArrow=none;startFill=0;startSize=5;endArrow=classicThin;endFill=1;endSize=5;jettySize=auto;orthogonalLoop=1;strokeWidth=1;fontFamily=Verdana;fontSize=8" parent="77e6c97f196da883-2" source="77e6c97f196da883-8" target="77e6c97f196da883-11" edge="1">
          <mxGeometry relative="1" as="geometry" />
        </mxCell>
        <mxCell id="f6PbpdCPIHnhkly5Aqhj-3" value="安全管理" style="rounded=1;whiteSpace=wrap;html=1;shadow=0;labelBackgroundColor=none;strokeWidth=1;fontFamily=Verdana;fontSize=8;align=center;fillColor=#f5f5f5;strokeColor=#666666;fontColor=#333333;" vertex="1" parent="77e6c97f196da883-2">
          <mxGeometry x="20" y="350" width="60" height="30" as="geometry" />
        </mxCell>
        <mxCell id="f6PbpdCPIHnhkly5Aqhj-4" value="监控管理" style="rounded=1;whiteSpace=wrap;html=1;shadow=0;labelBackgroundColor=none;strokeWidth=1;fontFamily=Verdana;fontSize=8;align=center;fillColor=#f5f5f5;strokeColor=#666666;fontColor=#333333;" vertex="1" parent="77e6c97f196da883-2">
          <mxGeometry x="80" y="310" width="60" height="30" as="geometry" />
        </mxCell>
        <mxCell id="f6PbpdCPIHnhkly5Aqhj-5" value="组件管理" style="rounded=1;whiteSpace=wrap;html=1;shadow=0;labelBackgroundColor=none;strokeWidth=1;fontFamily=Verdana;fontSize=8;align=center;fillColor=#f5f5f5;strokeColor=#666666;fontColor=#333333;" vertex="1" parent="77e6c97f196da883-2">
          <mxGeometry x="140" y="270" width="60" height="30" as="geometry" />
        </mxCell>
        <mxCell id="f6PbpdCPIHnhkly5Aqhj-6" value="" style="curved=1;endArrow=classic;html=1;exitX=0.5;exitY=1;exitDx=0;exitDy=0;entryX=0.5;entryY=0;entryDx=0;entryDy=0;" edge="1" parent="77e6c97f196da883-2" source="77e6c97f196da883-8" target="f6PbpdCPIHnhkly5Aqhj-3">
          <mxGeometry width="50" height="50" relative="1" as="geometry">
            <mxPoint x="200" y="280" as="sourcePoint" />
            <mxPoint x="250" y="230" as="targetPoint" />
            <Array as="points">
              <mxPoint x="45" y="260" />
              <mxPoint x="45" y="290" />
            </Array>
          </mxGeometry>
        </mxCell>
        <mxCell id="f6PbpdCPIHnhkly5Aqhj-7" value="" style="curved=1;endArrow=classic;html=1;exitX=0.5;exitY=1;exitDx=0;exitDy=0;entryX=0.5;entryY=0;entryDx=0;entryDy=0;" edge="1" parent="77e6c97f196da883-2" source="77e6c97f196da883-8" target="f6PbpdCPIHnhkly5Aqhj-4">
          <mxGeometry width="50" height="50" relative="1" as="geometry">
            <mxPoint x="55" y="220" as="sourcePoint" />
            <mxPoint x="60" y="360" as="targetPoint" />
            <Array as="points">
              <mxPoint x="70" y="260" />
              <mxPoint x="100" y="270" />
            </Array>
          </mxGeometry>
        </mxCell>
        <mxCell id="f6PbpdCPIHnhkly5Aqhj-22" value="" style="curved=1;endArrow=classic;html=1;exitX=0.5;exitY=1;exitDx=0;exitDy=0;entryX=0.5;entryY=0;entryDx=0;entryDy=0;" edge="1" parent="77e6c97f196da883-2" source="77e6c97f196da883-8" target="f6PbpdCPIHnhkly5Aqhj-5">
          <mxGeometry width="50" height="50" relative="1" as="geometry">
            <mxPoint x="55" y="220" as="sourcePoint" />
            <mxPoint x="120" y="320" as="targetPoint" />
            <Array as="points">
              <mxPoint x="90" y="240" />
              <mxPoint x="120" y="260" />
            </Array>
          </mxGeometry>
        </mxCell>
        <mxCell id="f6PbpdCPIHnhkly5Aqhj-24" value="" style="edgeStyle=elbowEdgeStyle;html=1;endArrow=block;elbow=vertical;endFill=0;dashed=1;exitX=1;exitY=0.5;exitDx=0;exitDy=0;entryX=0;entryY=0.5;entryDx=0;entryDy=0;" edge="1" parent="77e6c97f196da883-1" source="77e6c97f196da883-11" target="f6PbpdCPIHnhkly5Aqhj-23">
          <mxGeometry width="100" height="75" relative="1" as="geometry">
            <mxPoint x="250" y="295" as="sourcePoint" />
            <mxPoint x="350" y="220" as="targetPoint" />
          </mxGeometry>
        </mxCell>
        <mxCell id="77e6c97f196da883-3" value="租户管理员" style="swimlane;html=1;startSize=20;" parent="77e6c97f196da883-1" vertex="1">
          <mxGeometry x="210" y="20" width="300" height="740" as="geometry" />
        </mxCell>
        <mxCell id="f6PbpdCPIHnhkly5Aqhj-23" value="登录" style="rounded=1;whiteSpace=wrap;html=1;shadow=0;labelBackgroundColor=none;strokeWidth=1;fontFamily=Verdana;fontSize=8;align=center;fillColor=#f5f5f5;strokeColor=#666666;fontColor=#333333;" vertex="1" parent="77e6c97f196da883-3">
          <mxGeometry x="20" y="180" width="60" height="30" as="geometry" />
        </mxCell>
        <mxCell id="f6PbpdCPIHnhkly5Aqhj-25" value="&lt;font style=&quot;font-size: 11px&quot;&gt;租户管理员&lt;/font&gt;" style="text;html=1;strokeColor=none;fillColor=none;align=center;verticalAlign=middle;whiteSpace=wrap;rounded=0;" vertex="1" parent="77e6c97f196da883-3">
          <mxGeometry y="120" width="70" height="20" as="geometry" />
        </mxCell>
        <mxCell id="f6PbpdCPIHnhkly5Aqhj-26" value="" style="shape=flexArrow;endArrow=classic;html=1;" edge="1" parent="77e6c97f196da883-3">
          <mxGeometry width="50" height="50" relative="1" as="geometry">
            <mxPoint x="34.710000000000036" y="140" as="sourcePoint" />
            <mxPoint x="34.710000000000036" y="170" as="targetPoint" />
            <Array as="points">
              <mxPoint x="34.70999999999998" y="180" />
            </Array>
          </mxGeometry>
        </mxCell>
        <mxCell id="f6PbpdCPIHnhkly5Aqhj-27" value="捞取用户" style="rounded=1;whiteSpace=wrap;html=1;shadow=0;labelBackgroundColor=none;strokeWidth=1;fontFamily=Verdana;fontSize=8;align=center;fillColor=#f5f5f5;strokeColor=#666666;fontColor=#333333;" vertex="1" parent="77e6c97f196da883-3">
          <mxGeometry x="130" y="90" width="60" height="30" as="geometry" />
        </mxCell>
        <mxCell id="f6PbpdCPIHnhkly5Aqhj-28" value="设置用户角色" style="rounded=1;whiteSpace=wrap;html=1;shadow=0;labelBackgroundColor=none;strokeWidth=1;fontFamily=Verdana;fontSize=8;align=center;fillColor=#f5f5f5;strokeColor=#666666;fontColor=#333333;" vertex="1" parent="77e6c97f196da883-3">
          <mxGeometry x="220" y="180" width="60" height="30" as="geometry" />
        </mxCell>
        <mxCell id="f6PbpdCPIHnhkly5Aqhj-29" value="合同管理" style="rounded=1;whiteSpace=wrap;html=1;shadow=0;labelBackgroundColor=none;strokeWidth=1;fontFamily=Verdana;fontSize=8;align=center;fillColor=#f5f5f5;strokeColor=#666666;fontColor=#333333;" vertex="1" parent="77e6c97f196da883-3">
          <mxGeometry x="130" y="300" width="60" height="30" as="geometry" />
        </mxCell>
        <mxCell id="f6PbpdCPIHnhkly5Aqhj-30" value="" style="curved=1;endArrow=classic;html=1;exitX=0.65;exitY=-0.043;exitDx=0;exitDy=0;entryX=0;entryY=0.5;entryDx=0;entryDy=0;exitPerimeter=0;" edge="1" parent="77e6c97f196da883-3" source="f6PbpdCPIHnhkly5Aqhj-23" target="f6PbpdCPIHnhkly5Aqhj-27">
          <mxGeometry width="50" height="50" relative="1" as="geometry">
            <mxPoint x="90" y="250" as="sourcePoint" />
            <mxPoint x="140" y="200" as="targetPoint" />
            <Array as="points">
              <mxPoint x="65" y="150" />
              <mxPoint x="80" y="110" />
            </Array>
          </mxGeometry>
        </mxCell>
        <mxCell id="f6PbpdCPIHnhkly5Aqhj-31" value="" style="curved=1;endArrow=classic;html=1;exitX=1;exitY=0.5;exitDx=0;exitDy=0;entryX=0.383;entryY=0.014;entryDx=0;entryDy=0;entryPerimeter=0;" edge="1" parent="77e6c97f196da883-3" source="f6PbpdCPIHnhkly5Aqhj-27" target="f6PbpdCPIHnhkly5Aqhj-28">
          <mxGeometry width="50" height="50" relative="1" as="geometry">
            <mxPoint x="90" y="250" as="sourcePoint" />
            <mxPoint x="140" y="200" as="targetPoint" />
            <Array as="points">
              <mxPoint x="210" y="110" />
              <mxPoint x="230" y="130" />
              <mxPoint x="243" y="150" />
            </Array>
          </mxGeometry>
        </mxCell>
        <mxCell id="f6PbpdCPIHnhkly5Aqhj-36" value="" style="endArrow=classic;html=1;exitX=0.631;exitY=1.081;exitDx=0;exitDy=0;exitPerimeter=0;entryX=0;entryY=0.5;entryDx=0;entryDy=0;strokeColor=#3399FF;" edge="1" parent="77e6c97f196da883-3" source="f6PbpdCPIHnhkly5Aqhj-23" target="f6PbpdCPIHnhkly5Aqhj-29">
          <mxGeometry relative="1" as="geometry">
            <mxPoint x="40" y="270" as="sourcePoint" />
            <mxPoint x="200" y="270" as="targetPoint" />
            <Array as="points">
              <mxPoint x="60" y="230" />
              <mxPoint x="100" y="295" />
            </Array>
          </mxGeometry>
        </mxCell>
        <mxCell id="f6PbpdCPIHnhkly5Aqhj-37" value="租户管理员&lt;br&gt;（API提供方）" style="edgeLabel;resizable=0;html=1;align=center;verticalAlign=middle;" connectable="0" vertex="1" parent="f6PbpdCPIHnhkly5Aqhj-36">
          <mxGeometry relative="1" as="geometry" />
        </mxCell>
        <mxCell id="f6PbpdCPIHnhkly5Aqhj-39" value="选取API" style="rounded=1;whiteSpace=wrap;html=1;shadow=0;labelBackgroundColor=none;strokeWidth=1;fontFamily=Verdana;fontSize=8;align=center;fillColor=#f5f5f5;strokeColor=#666666;fontColor=#333333;" vertex="1" parent="77e6c97f196da883-3">
          <mxGeometry x="30" y="420" width="60" height="30" as="geometry" />
        </mxCell>
        <mxCell id="f6PbpdCPIHnhkly5Aqhj-40" value="选取租户" style="rounded=1;whiteSpace=wrap;html=1;shadow=0;labelBackgroundColor=none;strokeWidth=1;fontFamily=Verdana;fontSize=8;align=center;fillColor=#f5f5f5;strokeColor=#666666;fontColor=#333333;" vertex="1" parent="77e6c97f196da883-3">
          <mxGeometry x="210" y="420" width="60" height="30" as="geometry" />
        </mxCell>
        <mxCell id="f6PbpdCPIHnhkly5Aqhj-41" value="" style="curved=1;endArrow=classic;html=1;exitX=0.5;exitY=1;exitDx=0;exitDy=0;entryX=0.5;entryY=0;entryDx=0;entryDy=0;strokeColor=#3399FF;" edge="1" parent="77e6c97f196da883-3" source="f6PbpdCPIHnhkly5Aqhj-29" target="f6PbpdCPIHnhkly5Aqhj-39">
          <mxGeometry width="50" height="50" relative="1" as="geometry">
            <mxPoint x="60" y="510" as="sourcePoint" />
            <mxPoint x="110" y="460" as="targetPoint" />
            <Array as="points">
              <mxPoint x="90" y="350" />
              <mxPoint x="60" y="400" />
            </Array>
          </mxGeometry>
        </mxCell>
        <mxCell id="f6PbpdCPIHnhkly5Aqhj-42" value="" style="curved=1;endArrow=classic;html=1;exitX=0.5;exitY=1;exitDx=0;exitDy=0;entryX=0.5;entryY=0;entryDx=0;entryDy=0;strokeColor=#3399FF;" edge="1" parent="77e6c97f196da883-3" source="f6PbpdCPIHnhkly5Aqhj-29" target="f6PbpdCPIHnhkly5Aqhj-40">
          <mxGeometry width="50" height="50" relative="1" as="geometry">
            <mxPoint x="60" y="550" as="sourcePoint" />
            <mxPoint x="110" y="500" as="targetPoint" />
            <Array as="points">
              <mxPoint x="240" y="380" />
            </Array>
          </mxGeometry>
        </mxCell>
        <mxCell id="f6PbpdCPIHnhkly5Aqhj-43" value="合同生效" style="rounded=1;whiteSpace=wrap;html=1;shadow=0;labelBackgroundColor=none;strokeWidth=1;fontFamily=Verdana;fontSize=8;align=center;fillColor=#f5f5f5;strokeColor=#666666;fontColor=#333333;" vertex="1" parent="77e6c97f196da883-3">
          <mxGeometry x="120" y="520" width="60" height="30" as="geometry" />
        </mxCell>
        <mxCell id="f6PbpdCPIHnhkly5Aqhj-44" value="" style="curved=1;endArrow=classic;html=1;exitX=0.5;exitY=1;exitDx=0;exitDy=0;entryX=0;entryY=0.5;entryDx=0;entryDy=0;strokeColor=#3399FF;" edge="1" parent="77e6c97f196da883-3" source="f6PbpdCPIHnhkly5Aqhj-39" target="f6PbpdCPIHnhkly5Aqhj-43">
          <mxGeometry width="50" height="50" relative="1" as="geometry">
            <mxPoint x="60" y="610" as="sourcePoint" />
            <mxPoint x="110" y="560" as="targetPoint" />
            <Array as="points">
              <mxPoint x="60" y="490" />
              <mxPoint x="80" y="520" />
            </Array>
          </mxGeometry>
        </mxCell>
        <mxCell id="f6PbpdCPIHnhkly5Aqhj-45" value="" style="curved=1;endArrow=classic;html=1;exitX=0.5;exitY=1;exitDx=0;exitDy=0;entryX=1;entryY=0.5;entryDx=0;entryDy=0;strokeColor=#3399FF;" edge="1" parent="77e6c97f196da883-3" source="f6PbpdCPIHnhkly5Aqhj-40" target="f6PbpdCPIHnhkly5Aqhj-43">
          <mxGeometry width="50" height="50" relative="1" as="geometry">
            <mxPoint x="60" y="570" as="sourcePoint" />
            <mxPoint x="110" y="520" as="targetPoint" />
            <Array as="points">
              <mxPoint x="240" y="480" />
              <mxPoint x="220" y="520" />
            </Array>
          </mxGeometry>
        </mxCell>
        <mxCell id="f6PbpdCPIHnhkly5Aqhj-46" value="APP管理" style="rounded=1;whiteSpace=wrap;html=1;shadow=0;labelBackgroundColor=none;strokeWidth=1;fontFamily=Verdana;fontSize=8;align=center;fillColor=#f5f5f5;strokeColor=#666666;fontColor=#333333;" vertex="1" parent="77e6c97f196da883-3">
          <mxGeometry x="170" y="640" width="60" height="30" as="geometry" />
        </mxCell>
        <mxCell id="f6PbpdCPIHnhkly5Aqhj-47" value="" style="curved=1;endArrow=classic;html=1;exitX=0.5;exitY=1;exitDx=0;exitDy=0;entryX=0;entryY=0.5;entryDx=0;entryDy=0;strokeColor=#CC0000;" edge="1" parent="77e6c97f196da883-3" source="f6PbpdCPIHnhkly5Aqhj-43" target="f6PbpdCPIHnhkly5Aqhj-46">
          <mxGeometry width="50" height="50" relative="1" as="geometry">
            <mxPoint x="60" y="630" as="sourcePoint" />
            <mxPoint x="110" y="580" as="targetPoint" />
            <Array as="points">
              <mxPoint x="140" y="600" />
              <mxPoint x="140" y="640" />
            </Array>
          </mxGeometry>
        </mxCell>
        <mxCell id="f6PbpdCPIHnhkly5Aqhj-48" value="绑定用户" style="rounded=1;whiteSpace=wrap;html=1;shadow=0;labelBackgroundColor=none;strokeWidth=1;fontFamily=Verdana;fontSize=8;align=center;fillColor=#f5f5f5;strokeColor=#666666;fontColor=#333333;" vertex="1" parent="77e6c97f196da883-3">
          <mxGeometry x="230" y="560" width="60" height="30" as="geometry" />
        </mxCell>
        <mxCell id="f6PbpdCPIHnhkly5Aqhj-49" value="" style="curved=1;endArrow=classic;html=1;exitX=1;exitY=0.5;exitDx=0;exitDy=0;strokeColor=#CC0000;" edge="1" parent="77e6c97f196da883-3" source="f6PbpdCPIHnhkly5Aqhj-46">
          <mxGeometry width="50" height="50" relative="1" as="geometry">
            <mxPoint x="60" y="630" as="sourcePoint" />
            <mxPoint x="260" y="590" as="targetPoint" />
            <Array as="points">
              <mxPoint x="250" y="650" />
              <mxPoint x="260" y="620" />
            </Array>
          </mxGeometry>
        </mxCell>
        <mxCell id="f6PbpdCPIHnhkly5Aqhj-109" value="用户权限管理流程" style="text;html=1;strokeColor=none;fillColor=none;align=center;verticalAlign=middle;whiteSpace=wrap;rounded=0;" vertex="1" parent="77e6c97f196da883-3">
          <mxGeometry x="135" y="185" width="50" height="20" as="geometry" />
        </mxCell>
        <mxCell id="f6PbpdCPIHnhkly5Aqhj-110" style="edgeStyle=orthogonalEdgeStyle;rounded=0;orthogonalLoop=1;jettySize=auto;html=1;exitX=0.75;exitY=0;exitDx=0;exitDy=0;entryX=0.75;entryY=0.5;entryDx=0;entryDy=0;entryPerimeter=0;" edge="1" parent="77e6c97f196da883-3" source="f6PbpdCPIHnhkly5Aqhj-109" target="f6PbpdCPIHnhkly5Aqhj-109">
          <mxGeometry relative="1" as="geometry" />
        </mxCell>
        <mxCell id="f6PbpdCPIHnhkly5Aqhj-111" value="API外部购买流程" style="text;html=1;strokeColor=none;fillColor=none;align=center;verticalAlign=middle;whiteSpace=wrap;rounded=0;" vertex="1" parent="77e6c97f196da883-3">
          <mxGeometry x="130" y="425" width="50" height="20" as="geometry" />
        </mxCell>
        <mxCell id="77e6c97f196da883-4" value="普通用户" style="swimlane;html=1;startSize=20;" parent="77e6c97f196da883-1" vertex="1">
          <mxGeometry x="510" y="20" width="360" height="740" as="geometry" />
        </mxCell>
        <mxCell id="f6PbpdCPIHnhkly5Aqhj-73" value="登录" style="rounded=1;whiteSpace=wrap;html=1;shadow=0;labelBackgroundColor=none;strokeWidth=1;fontFamily=Verdana;fontSize=8;align=center;fillColor=#f5f5f5;strokeColor=#666666;fontColor=#333333;" vertex="1" parent="77e6c97f196da883-4">
          <mxGeometry x="20" y="180" width="60" height="30" as="geometry" />
        </mxCell>
        <mxCell id="f6PbpdCPIHnhkly5Aqhj-74" value="" style="edgeStyle=elbowEdgeStyle;html=1;endArrow=block;elbow=vertical;endFill=0;dashed=1;exitX=1;exitY=0.5;exitDx=0;exitDy=0;entryX=0;entryY=0.5;entryDx=0;entryDy=0;" edge="1" parent="77e6c97f196da883-4">
          <mxGeometry width="100" height="75" relative="1" as="geometry">
            <mxPoint x="-20.000000000000114" y="194.66" as="sourcePoint" />
            <mxPoint x="19.999999999999886" y="194.66" as="targetPoint" />
            <Array as="points">
              <mxPoint y="194.66" />
            </Array>
          </mxGeometry>
        </mxCell>
        <mxCell id="f6PbpdCPIHnhkly5Aqhj-75" value="&lt;font style=&quot;font-size: 11px&quot;&gt;普通用户&lt;/font&gt;" style="text;html=1;strokeColor=none;fillColor=none;align=center;verticalAlign=middle;whiteSpace=wrap;rounded=0;" vertex="1" parent="77e6c97f196da883-4">
          <mxGeometry x="15" y="120" width="70" height="20" as="geometry" />
        </mxCell>
        <mxCell id="f6PbpdCPIHnhkly5Aqhj-76" value="" style="shape=flexArrow;endArrow=classic;html=1;" edge="1" parent="77e6c97f196da883-4">
          <mxGeometry width="50" height="50" relative="1" as="geometry">
            <mxPoint x="49.659999999999854" y="140" as="sourcePoint" />
            <mxPoint x="49.659999999999854" y="170" as="targetPoint" />
            <Array as="points">
              <mxPoint x="49.65999999999997" y="180" />
            </Array>
          </mxGeometry>
        </mxCell>
        <mxCell id="f6PbpdCPIHnhkly5Aqhj-77" value="APP管理" style="rounded=1;whiteSpace=wrap;html=1;shadow=0;labelBackgroundColor=none;strokeWidth=1;fontFamily=Verdana;fontSize=8;align=center;fillColor=#f5f5f5;strokeColor=#666666;fontColor=#333333;" vertex="1" parent="77e6c97f196da883-4">
          <mxGeometry x="140" y="90" width="60" height="30" as="geometry" />
        </mxCell>
        <mxCell id="f6PbpdCPIHnhkly5Aqhj-78" value="API申请流程" style="rounded=1;whiteSpace=wrap;html=1;shadow=0;labelBackgroundColor=none;strokeWidth=1;fontFamily=Verdana;fontSize=8;align=center;fillColor=#f5f5f5;strokeColor=#666666;fontColor=#333333;" vertex="1" parent="77e6c97f196da883-4">
          <mxGeometry x="250" y="180" width="60" height="30" as="geometry" />
        </mxCell>
        <mxCell id="f6PbpdCPIHnhkly5Aqhj-79" value="" style="curved=1;endArrow=classic;html=1;exitX=0.75;exitY=0;exitDx=0;exitDy=0;entryX=0;entryY=0.5;entryDx=0;entryDy=0;strokeColor=#CC0000;" edge="1" parent="77e6c97f196da883-4" source="f6PbpdCPIHnhkly5Aqhj-73" target="f6PbpdCPIHnhkly5Aqhj-77">
          <mxGeometry width="50" height="50" relative="1" as="geometry">
            <mxPoint x="110" y="280" as="sourcePoint" />
            <mxPoint x="160" y="230" as="targetPoint" />
            <Array as="points">
              <mxPoint x="80" y="150" />
              <mxPoint x="90" y="130" />
            </Array>
          </mxGeometry>
        </mxCell>
        <mxCell id="f6PbpdCPIHnhkly5Aqhj-80" value="" style="curved=1;endArrow=classic;html=1;exitX=1;exitY=0.5;exitDx=0;exitDy=0;entryX=0.5;entryY=0;entryDx=0;entryDy=0;strokeColor=#CC0000;" edge="1" parent="77e6c97f196da883-4" source="f6PbpdCPIHnhkly5Aqhj-77" target="f6PbpdCPIHnhkly5Aqhj-78">
          <mxGeometry width="50" height="50" relative="1" as="geometry">
            <mxPoint x="140" y="280" as="sourcePoint" />
            <mxPoint x="190" y="230" as="targetPoint" />
            <Array as="points">
              <mxPoint x="230" y="120" />
              <mxPoint x="260" y="140" />
            </Array>
          </mxGeometry>
        </mxCell>
        <mxCell id="f6PbpdCPIHnhkly5Aqhj-81" value="API管理" style="rounded=1;whiteSpace=wrap;html=1;shadow=0;labelBackgroundColor=none;strokeWidth=1;fontFamily=Verdana;fontSize=8;align=center;fillColor=#f5f5f5;strokeColor=#666666;fontColor=#333333;" vertex="1" parent="77e6c97f196da883-4">
          <mxGeometry x="140" y="280" width="60" height="30" as="geometry" />
        </mxCell>
        <mxCell id="f6PbpdCPIHnhkly5Aqhj-82" value="" style="curved=1;endArrow=classic;html=1;exitX=0.75;exitY=1;exitDx=0;exitDy=0;entryX=0;entryY=0.5;entryDx=0;entryDy=0;strokeColor=#3399FF;" edge="1" parent="77e6c97f196da883-4" source="f6PbpdCPIHnhkly5Aqhj-73" target="f6PbpdCPIHnhkly5Aqhj-81">
          <mxGeometry width="50" height="50" relative="1" as="geometry">
            <mxPoint x="140" y="280" as="sourcePoint" />
            <mxPoint x="190" y="230" as="targetPoint" />
            <Array as="points">
              <mxPoint x="80" y="260" />
              <mxPoint x="100" y="280" />
            </Array>
          </mxGeometry>
        </mxCell>
        <mxCell id="f6PbpdCPIHnhkly5Aqhj-84" value="审核绑定" style="rounded=1;whiteSpace=wrap;html=1;shadow=0;labelBackgroundColor=none;strokeWidth=1;fontFamily=Verdana;fontSize=8;align=center;fillColor=#f5f5f5;strokeColor=#666666;fontColor=#333333;" vertex="1" parent="77e6c97f196da883-4">
          <mxGeometry x="140" y="390" width="60" height="30" as="geometry" />
        </mxCell>
        <mxCell id="f6PbpdCPIHnhkly5Aqhj-85" value="" style="curved=1;endArrow=classic;html=1;exitX=1;exitY=0.5;exitDx=0;exitDy=0;entryX=1;entryY=0.5;entryDx=0;entryDy=0;strokeColor=#3399FF;" edge="1" parent="77e6c97f196da883-4" source="f6PbpdCPIHnhkly5Aqhj-78" target="f6PbpdCPIHnhkly5Aqhj-84">
          <mxGeometry width="50" height="50" relative="1" as="geometry">
            <mxPoint x="150" y="400" as="sourcePoint" />
            <mxPoint x="200" y="350" as="targetPoint" />
            <Array as="points">
              <mxPoint x="330" y="230" />
              <mxPoint x="340" y="300" />
              <mxPoint x="300" y="380" />
            </Array>
          </mxGeometry>
        </mxCell>
        <mxCell id="f6PbpdCPIHnhkly5Aqhj-86" value="获取Token" style="rounded=1;whiteSpace=wrap;html=1;shadow=0;labelBackgroundColor=none;strokeWidth=1;fontFamily=Verdana;fontSize=8;align=center;fillColor=#f5f5f5;strokeColor=#666666;fontColor=#333333;" vertex="1" parent="77e6c97f196da883-4">
          <mxGeometry x="30" y="510" width="60" height="30" as="geometry" />
        </mxCell>
        <mxCell id="f6PbpdCPIHnhkly5Aqhj-87" value="监控统计" style="rounded=1;whiteSpace=wrap;html=1;shadow=0;labelBackgroundColor=none;strokeWidth=1;fontFamily=Verdana;fontSize=8;align=center;fillColor=#f5f5f5;strokeColor=#666666;fontColor=#333333;" vertex="1" parent="77e6c97f196da883-4">
          <mxGeometry x="240" y="510" width="60" height="30" as="geometry" />
        </mxCell>
        <mxCell id="f6PbpdCPIHnhkly5Aqhj-104" value="完成操作" style="rounded=1;whiteSpace=wrap;html=1;shadow=0;labelBackgroundColor=none;strokeWidth=1;fontFamily=Verdana;fontSize=8;align=center;fillColor=#f5f5f5;strokeColor=#666666;fontColor=#333333;" vertex="1" parent="77e6c97f196da883-4">
          <mxGeometry x="150" y="630" width="60" height="30" as="geometry" />
        </mxCell>
        <mxCell id="f6PbpdCPIHnhkly5Aqhj-105" value="" style="curved=1;endArrow=classic;html=1;exitX=0.5;exitY=1;exitDx=0;exitDy=0;entryX=0.5;entryY=0;entryDx=0;entryDy=0;strokeColor=#CC0000;" edge="1" parent="77e6c97f196da883-4" source="f6PbpdCPIHnhkly5Aqhj-84" target="f6PbpdCPIHnhkly5Aqhj-86">
          <mxGeometry width="50" height="50" relative="1" as="geometry">
            <mxPoint x="170" y="550" as="sourcePoint" />
            <mxPoint x="220" y="500" as="targetPoint" />
            <Array as="points">
              <mxPoint x="100" y="430" />
              <mxPoint x="70" y="460" />
            </Array>
          </mxGeometry>
        </mxCell>
        <mxCell id="f6PbpdCPIHnhkly5Aqhj-106" value="" style="curved=1;endArrow=classic;html=1;exitX=0.5;exitY=1;exitDx=0;exitDy=0;entryX=0.5;entryY=0;entryDx=0;entryDy=0;strokeColor=#3399FF;" edge="1" parent="77e6c97f196da883-4" source="f6PbpdCPIHnhkly5Aqhj-84" target="f6PbpdCPIHnhkly5Aqhj-87">
          <mxGeometry width="50" height="50" relative="1" as="geometry">
            <mxPoint x="170" y="550" as="sourcePoint" />
            <mxPoint x="220" y="500" as="targetPoint" />
            <Array as="points">
              <mxPoint x="240" y="440" />
              <mxPoint x="270" y="490" />
            </Array>
          </mxGeometry>
        </mxCell>
        <mxCell id="f6PbpdCPIHnhkly5Aqhj-107" value="" style="curved=1;endArrow=classic;html=1;exitX=0.5;exitY=1;exitDx=0;exitDy=0;entryX=0;entryY=0.5;entryDx=0;entryDy=0;strokeColor=#CC0000;" edge="1" parent="77e6c97f196da883-4" source="f6PbpdCPIHnhkly5Aqhj-86" target="f6PbpdCPIHnhkly5Aqhj-104">
          <mxGeometry width="50" height="50" relative="1" as="geometry">
            <mxPoint x="170" y="550" as="sourcePoint" />
            <mxPoint x="220" y="500" as="targetPoint" />
            <Array as="points">
              <mxPoint x="70" y="600" />
              <mxPoint x="100" y="630" />
            </Array>
          </mxGeometry>
        </mxCell>
        <mxCell id="f6PbpdCPIHnhkly5Aqhj-108" value="" style="curved=1;endArrow=classic;html=1;exitX=0.5;exitY=1;exitDx=0;exitDy=0;entryX=1;entryY=0.5;entryDx=0;entryDy=0;strokeColor=#3399FF;" edge="1" parent="77e6c97f196da883-4" source="f6PbpdCPIHnhkly5Aqhj-87" target="f6PbpdCPIHnhkly5Aqhj-104">
          <mxGeometry width="50" height="50" relative="1" as="geometry">
            <mxPoint x="170" y="550" as="sourcePoint" />
            <mxPoint x="220" y="500" as="targetPoint" />
            <Array as="points">
              <mxPoint x="270" y="580" />
              <mxPoint x="260" y="610" />
            </Array>
          </mxGeometry>
        </mxCell>
        <mxCell id="f6PbpdCPIHnhkly5Aqhj-113" value="API内部分配流程" style="text;html=1;strokeColor=none;fillColor=none;align=center;verticalAlign=middle;whiteSpace=wrap;rounded=0;" vertex="1" parent="77e6c97f196da883-4">
          <mxGeometry x="145" y="185" width="50" height="20" as="geometry" />
        </mxCell>
        <mxCell id="f6PbpdCPIHnhkly5Aqhj-114" value="API使用流程" style="text;html=1;strokeColor=none;fillColor=none;align=center;verticalAlign=middle;whiteSpace=wrap;rounded=0;" vertex="1" parent="77e6c97f196da883-4">
          <mxGeometry x="145" y="515" width="40" height="20" as="geometry" />
        </mxCell>
        <mxCell id="f6PbpdCPIHnhkly5Aqhj-116" value="" style="curved=1;endArrow=classic;html=1;exitX=1;exitY=0.5;exitDx=0;exitDy=0;entryX=0.5;entryY=1;entryDx=0;entryDy=0;strokeColor=#3399FF;" edge="1" parent="77e6c97f196da883-4" source="f6PbpdCPIHnhkly5Aqhj-81" target="f6PbpdCPIHnhkly5Aqhj-78">
          <mxGeometry width="50" height="50" relative="1" as="geometry">
            <mxPoint x="-100" y="370" as="sourcePoint" />
            <mxPoint x="180" y="220" as="targetPoint" />
            <Array as="points">
              <mxPoint x="240" y="280" />
              <mxPoint x="270" y="250" />
            </Array>
          </mxGeometry>
        </mxCell>
        <mxCell id="f6PbpdCPIHnhkly5Aqhj-115" value="" style="edgeStyle=elbowEdgeStyle;html=1;endArrow=block;elbow=vertical;endFill=0;dashed=1;entryX=0;entryY=0.5;entryDx=0;entryDy=0;strokeColor=#CC0000;" edge="1" parent="77e6c97f196da883-1" target="f6PbpdCPIHnhkly5Aqhj-86">
          <mxGeometry width="100" height="75" relative="1" as="geometry">
            <mxPoint x="480" y="455" as="sourcePoint" />
            <mxPoint x="540" y="224.65999999999997" as="targetPoint" />
            <Array as="points">
              <mxPoint x="500" y="545" />
            </Array>
          </mxGeometry>
        </mxCell>
      </root>
    </mxGraphModel>
  </diagram>
</mxfile>
